<svg xmlns="http://www.w3.org/2000/svg" width="46.003" height="46" viewBox="0 0 46.003 46">
  <g id="call" transform="translate(0.003)">
    <g id="Page-1" transform="translate(-0.003)">
      <g id="_003---Call" data-name="003---Call">
        <path id="Shape" d="M20.047,26.964a18.565,18.565,0,0,1-5.606-10.54,1.577,1.577,0,0,1,.453-1.32l3.553-3.552a1.586,1.586,0,0,0,.224-1.963L13.014.805A1.586,1.586,0,0,0,10.959.227L1.877,4.5A1.577,1.577,0,0,0,1,6.08C1.481,10.6,3.452,21.714,14.373,32.636S36.405,45.528,40.928,46a1.577,1.577,0,0,0,1.576-.872l4.277-9.082A1.586,1.586,0,0,0,46.206,34l-8.784-5.656a1.586,1.586,0,0,0-1.963.222l-3.552,3.553a1.577,1.577,0,0,1-1.32.453,18.565,18.565,0,0,1-10.54-5.606Z" transform="translate(-0.997 -0.012)" fill="#fff"/>
        <path id="Shape-2" data-name="Shape" d="M41.021,24.392a1.371,1.371,0,0,1-1.371-1.371,10.291,10.291,0,0,0-10.28-10.28,1.371,1.371,0,0,1,0-2.741A13.035,13.035,0,0,1,42.392,23.021,1.371,1.371,0,0,1,41.021,24.392Z" transform="translate(-5.023 -1.087)" fill="#fff"/>
        <path id="Shape-3" data-name="Shape" d="M51.092,24.685A1.593,1.593,0,0,1,49.5,23.092,19.93,19.93,0,0,0,29.593,3.185a1.593,1.593,0,0,1,0-3.185A23.118,23.118,0,0,1,52.685,23.092a1.593,1.593,0,0,1-1.593,1.593Z" transform="translate(-6.682)" fill="#fff"/>
        <circle id="Ellipse_34" data-name="Ellipse 34" cx="1.5" cy="1.5" r="1.5" transform="translate(43 26)" fill="#fff"/>
      </g>
    </g>
  </g>
</svg>
