<svg xmlns="http://www.w3.org/2000/svg" xmlns:xlink="http://www.w3.org/1999/xlink" width="211.317" height="40" viewBox="0 0 211.317 40">
  <defs>
    <clipPath id="clip-path">
      <rect id="Rectangle_24069" data-name="Rectangle 24069" width="40" height="211.317" fill="none"/>
    </clipPath>
    <clipPath id="clip-path-2">
      <rect id="Rectangle_24068" data-name="Rectangle 24068" width="40" height="211.318" fill="none"/>
    </clipPath>
    <clipPath id="clip-path-3">
      <rect id="Rectangle_24067" data-name="Rectangle 24067" width="11.24" height="9.749" fill="none"/>
    </clipPath>
  </defs>
  <g id="Group_51817" data-name="Group 51817" transform="translate(211.317) rotate(90)">
    <g id="Group_50674" data-name="Group 50674" clip-path="url(#clip-path)">
      <rect id="Rectangle_24066" data-name="Rectangle 24066" width="40" height="211.318" transform="translate(0 -0.001)" fill="#ffb30b"/>
      <path id="Path_42910" data-name="Path 42910" d="M23.4,341.661h2.883v6.148h3.286V343.06h2.756v4.749h6.063v3.625H23.4Z" transform="translate(-11.235 -164.04)" fill="#2b3990"/>
      <g id="Group_50673" data-name="Group 50673" transform="translate(0 -0.001)">
        <g id="Group_50672" data-name="Group 50672" clip-path="url(#clip-path-2)">
          <path id="Path_42911" data-name="Path 42911" d="M19.944,334.138a2.546,2.546,0,0,1,0-3.137,1.772,1.772,0,0,1,1.367-.593,1.748,1.748,0,0,1,1.346.593,2.548,2.548,0,0,1,0,3.137,1.745,1.745,0,0,1-1.346.594,1.769,1.769,0,0,1-1.367-.594m4.7-3.37H36.468v3.625H24.639Z" transform="translate(-9.316 -158.636)" fill="#2b3990"/>
          <path id="Path_42912" data-name="Path 42912" d="M29.866,313.808a4.463,4.463,0,0,1-.636-2.321h3.88v1.039a3.584,3.584,0,0,0,.615,2.237,2.469,2.469,0,0,0,2.077.795h5.384v3.625H29.357v-3.625h2.226a5.138,5.138,0,0,1-1.717-1.749" transform="translate(-14.034 -149.552)" fill="#2b3990"/>
          <path id="Path_42913" data-name="Path 42913" d="M30.313,291.648a4.882,4.882,0,0,1,2.968-1.685v3.392a1.88,1.88,0,0,0-1.134.668,2.028,2.028,0,0,0-.413,1.3,1.425,1.425,0,0,0,.265.933.926.926,0,0,0,.753.318.881.881,0,0,0,.827-.583,9.27,9.27,0,0,0,.552-1.834,18.246,18.246,0,0,1,.646-2.226,3.677,3.677,0,0,1,1.071-1.505,2.96,2.96,0,0,1,1.993-.636,3.056,3.056,0,0,1,1.8.551,3.632,3.632,0,0,1,1.23,1.59,6.216,6.216,0,0,1,.445,2.459,6.329,6.329,0,0,1-1.06,3.837,4.468,4.468,0,0,1-3.031,1.76v-3.5a1.574,1.574,0,0,0,1.166-.646,2.433,2.433,0,0,0,.4-1.453,1.353,1.353,0,0,0-.286-.933.966.966,0,0,0-.753-.318.906.906,0,0,0-.88.583,10.782,10.782,0,0,0-.561,1.9,15.172,15.172,0,0,1-.594,2.162,3.567,3.567,0,0,1-1.028,1.463,2.864,2.864,0,0,1-1.94.615,3.167,3.167,0,0,1-2.576-1.208,5.269,5.269,0,0,1-.986-3.413,5.428,5.428,0,0,1,1.124-3.593" transform="translate(-14.014 -139.136)" fill="#2b3990"/>
          <path id="Path_42914" data-name="Path 42914" d="M35.506,273.034h3.116v1.632a4.7,4.7,0,0,1-1.028,3.233,4.358,4.358,0,0,1-3.4,1.156H29.845v1.59H26.793v-1.59h-2.9v-3.626h2.9v-2.374h3.053v2.374h4.41a1.332,1.332,0,0,0,.975-.285,1.371,1.371,0,0,0,.276-.965Z" transform="translate(-11.469 -131.09)" fill="#2b3990"/>
          <path id="Path_42915" data-name="Path 42915" d="M22.842,240.4H33.081a4.883,4.883,0,0,1,3.626,1.283,4.823,4.823,0,0,1,1.272,3.551,5.382,5.382,0,0,1-1.389,3.9,5.29,5.29,0,0,1-4,1.442V247q2.1,0,2.1-1.59,0-1.378-1.612-1.378H22.842Z" transform="translate(-10.967 -115.424)" fill="#2b3990"/>
          <path id="Path_42916" data-name="Path 42916" d="M29.363,216.348a5.362,5.362,0,0,1,2.109-2.183,6.929,6.929,0,0,1,6.445,0,5.367,5.367,0,0,1,2.11,2.183,7.167,7.167,0,0,1,0,6.307,5.35,5.35,0,0,1-2.11,2.194,6.929,6.929,0,0,1-6.445,0,5.345,5.345,0,0,1-2.109-2.194,7.163,7.163,0,0,1,0-6.307m3.159,4.9a3.048,3.048,0,0,0,2.173.71,3.008,3.008,0,0,0,2.162-.71A2.325,2.325,0,0,0,37.6,219.5a2.291,2.291,0,0,0-.742-1.738,3.036,3.036,0,0,0-2.162-.7,3.076,3.076,0,0,0-2.173.7,2.277,2.277,0,0,0-.753,1.738,2.31,2.31,0,0,0,.753,1.749" transform="translate(-13.747 -102.444)" fill="#2b3990"/>
          <path id="Path_42917" data-name="Path 42917" d="M25.937,188.214a5.016,5.016,0,0,1,2.1-1.823,7.3,7.3,0,0,1,3.233-.668,7.312,7.312,0,0,1,3.222.668,5.008,5.008,0,0,1,2.109,1.823,4.791,4.791,0,0,1,.731,2.618,4.278,4.278,0,0,1-.615,2.332,3.565,3.565,0,0,1-1.675,1.42h2.141v3.625H21.5v-3.625h6a3.572,3.572,0,0,1-1.675-1.42,4.283,4.283,0,0,1-.614-2.332,4.791,4.791,0,0,1,.731-2.618m3.222,5.66a3.392,3.392,0,0,0,4.208,0,2.662,2.662,0,0,0,.021-3.752,3,3,0,0,0-2.12-.71,3,3,0,0,0-2.121.71,2.676,2.676,0,0,0,.011,3.752" transform="translate(-10.321 -89.17)" fill="#2b3990"/>
          <path id="Path_42918" data-name="Path 42918" d="M33.437,210.253a6.945,6.945,0,1,1-6.944,6.945,6.945,6.945,0,0,1,6.944-6.945" transform="translate(-12.72 -100.947)" fill="#2b3990"/>
          <g id="Group_50671" data-name="Group 50671" transform="translate(15.84 112.256)" opacity="0.12">
            <g id="Group_50670" data-name="Group 50670">
              <g id="Group_50669" data-name="Group 50669" clip-path="url(#clip-path-3)">
                <path id="Path_42919" data-name="Path 42919" d="M36.411,216.141a.689.689,0,0,1,.4-.112.878.878,0,0,1,.412.116.682.682,0,0,0,.251.085.648.648,0,0,0,.112-.011.856.856,0,0,1,.635.125,1.3,1.3,0,0,1,.454.884c.017.067.033.137.052.206a9.222,9.222,0,0,1,.32,1.76c.006.075.012.139.018.166a2.616,2.616,0,0,0,.623.952c.193.228,1.2,1.432,2.02,2.4a6.965,6.965,0,0,1-2.475,2.967c-.488-.789-1.231-1.8-1.5-2.134a8.616,8.616,0,0,0-1.939-2.048,7.545,7.545,0,0,0-1.454-.585c-.228-.073-.426-.137-.557-.195l-.287-.123c-.116-.052-.2-.088-.365-.155a2.17,2.17,0,0,0-.707-.181l-.166-.028c-.365-.058-.463-.069-.625-.086l-.211-.024a3.515,3.515,0,0,0-.44-.022c-.184,0-.358,0-.468-.183a.575.575,0,0,1,.082-.563,1.227,1.227,0,0,1,1.054-.491l.043,0a3.061,3.061,0,0,1,.553.019c.122.014.277.03.522.042.395.018.766.034.893-.125a1.069,1.069,0,0,0,.049-.406,2.926,2.926,0,0,0-.041-.652,2.478,2.478,0,0,1-.04-.492.981.981,0,0,1,.469-.894,1,1,0,0,1,.62-.043.776.776,0,0,0,.227.016.6.6,0,0,0,.209-.162l.018-.018a.637.637,0,0,1,.4-.213.809.809,0,0,1,.538.166c.127.093.152.091.19.089a.227.227,0,0,0,.1-.042" transform="translate(-30.47 -215.927)"/>
              </g>
            </g>
          </g>
          <path id="Path_42920" data-name="Path 42920" d="M36.411,217.21a.693.693,0,0,1,.4-.113.884.884,0,0,1,.412.116.693.693,0,0,0,.251.085.8.8,0,0,0,.111-.01.852.852,0,0,1,.637.124,1.305,1.305,0,0,1,.454.884c.017.067.033.136.052.207a9.2,9.2,0,0,1,.32,1.761c.006.074.012.139.018.164a2.606,2.606,0,0,0,.623.953l1.861,2.178c-.061.124-.129.246-.2.364a6.974,6.974,0,0,1-2.144,2.284c-.107.073-.217.141-.328.207a13.981,13.981,0,0,0-1.142-1.8,8.589,8.589,0,0,0-1.939-2.047,7.43,7.43,0,0,0-1.455-.584c-.227-.075-.425-.139-.556-.195l-.287-.124c-.116-.05-.2-.087-.365-.155a2.21,2.21,0,0,0-.707-.181l-.166-.026c-.365-.058-.463-.07-.625-.087l-.211-.023a3.073,3.073,0,0,0-.44-.022c-.184,0-.358,0-.468-.183a.576.576,0,0,1,.082-.564,1.227,1.227,0,0,1,1.054-.491l.043,0a3.152,3.152,0,0,1,.553.019c.122.013.277.029.525.041.393.018.764.034.891-.124a1.071,1.071,0,0,0,.049-.406,2.934,2.934,0,0,0-.041-.653,2.479,2.479,0,0,1-.04-.491.978.978,0,0,1,.471-.893,1,1,0,0,1,.618-.045.762.762,0,0,0,.227.017c.058-.015.111-.066.209-.161l.018-.017a.643.643,0,0,1,.4-.215.813.813,0,0,1,.538.166c.127.094.152.091.19.088a.211.211,0,0,0,.1-.041" transform="translate(-14.629 -104.184)" fill="#fce1d9"/>
          <path id="Path_42921" data-name="Path 42921" d="M32.342,158.689v2.173h5.167v3.506H23.116v-5.679c0-3.527,1.989-5.29,4.634-5.29,2.378,0,4.593,1.62,4.593,5.29m-2.789.266c0-1.394-.7-1.989-1.8-1.989s-1.8.594-1.8,1.989v1.906h3.608Z" transform="translate(-11.099 -73.65)" fill="#1c75bc"/>
          <path id="Path_42922" data-name="Path 42922" d="M28.478,137.2a3.984,3.984,0,0,1,1.785-3.527h-1.62v-3.506h11.44v3.506H38.463a4.048,4.048,0,0,1,1.784,3.548c0,2.788-2.3,5.024-5.906,5.024s-5.864-2.236-5.864-5.044m3.055-1.025a2.548,2.548,0,0,0,2.809,2.5,2.584,2.584,0,0,0,2.849-2.5,2.554,2.554,0,0,0-2.829-2.5,2.555,2.555,0,0,0-2.83,2.5" transform="translate(-13.673 -62.497)" fill="#1c75bc"/>
          <path id="Path_42923" data-name="Path 42923" d="M21.617,117.177v-3.5H30l-4.653-3.465v-4.326l5.742,4.757,5.7-4.8v4.348l-4.8,3.486h4.8v3.5Z" transform="translate(-10.379 -50.815)" fill="#1c75bc"/>
          <path id="Path_42924" data-name="Path 42924" d="M21.617,93.229V89.723H30l-4.653-3.464V81.932l5.742,4.756,5.7-4.8v4.347l-4.8,3.486h4.8v3.506Z" transform="translate(-10.379 -39.317)" fill="#1c75bc"/>
          <path id="Path_42925" data-name="Path 42925" d="M37.2,45.68a1.914,1.914,0,1,1-1.887-2.071A1.936,1.936,0,0,1,37.2,45.68M22.13,47.628V43.834l9.822.41v2.974Z" transform="translate(-10.625 -20.937)" fill="#1c75bc"/>
          <path id="Path_42926" data-name="Path 42926" d="M28.478,65.7a3.981,3.981,0,0,1,1.785-3.527h-1.62V58.663h11.44v3.506H38.463a4.045,4.045,0,0,1,1.784,3.547c0,2.789-2.3,5.023-5.906,5.023S28.478,68.5,28.478,65.7m3.055-1.026a2.548,2.548,0,0,0,2.809,2.5,2.584,2.584,0,0,0,2.849-2.5,2.553,2.553,0,0,0-2.829-2.5,2.555,2.555,0,0,0-2.83,2.5" transform="translate(-13.673 -28.165)" fill="#1c75bc"/>
        </g>
      </g>
    </g>
  </g>
</svg>
